<?xml version="1.0" encoding="utf-8"?>
<!-- Generator: Adobe Illustrator 25.2.0, SVG Export Plug-In . SVG Version: 6.00 Build 0)  -->
<svg version="1.1" id="Layer_1" xmlns="http://www.w3.org/2000/svg" xmlns:xlink="http://www.w3.org/1999/xlink" x="0px" y="0px"
	 viewBox="0 0 250 100" style="enable-background:new 0 0 250 100;" xml:space="preserve">
<style type="text/css">
	.st0{opacity:0.5;fill:#A4E900;stroke:#000000;stroke-miterlimit:10;}
	.st1{fill:#96FF00;stroke:#000000;stroke-miterlimit:10;}
	.st2{fill:#FFFFFF;}
	.st3{font-family:'MyriadPro-Regular';}
	.st4{font-size:26.679px;}
</style>
<path class="st0" d="M130.5,79.5c16.69-1.57,29.17-14.2,30-28c1.08-18.02-18.09-31.85-35-31c-11.48,0.58-26.49,8.14-29,23
	c-2.17,12.84,5.93,25.54,17,30c16.22,6.54,37.78-5.01,39-20c0.81-9.95-7.35-21.39-19-24c-11.42-2.55-25.92,3.44-28,15
	c-1.45,8.06,3.39,17.44,12,21c7.64,3.16,18.05,1.66,23-6c3.48-5.38,4.47-13.62,0-19c-6.18-7.42-19.48-7.14-25,0
	c-3.01,3.9-4.03,10.26-1,15c4.14,6.49,14.66,8.07,20,3c3.62-3.44,5.14-10.2,2-14c-4.03-4.88-14.33-3.16-17,2
	c-1.23,2.38-1.11,6.01,1,8c2.97,2.79,8.93,1.46,11-2c1.15-1.92,1.39-4.96,0-6c-1.81-1.35-6.14,0.88-8,3
	C116.98,56.92,128.77,76.65,130.5,79.5z"/>
<path class="st1" d="M167.5,122.5"/>
<text transform="matrix(1.2805 0 0 1 109 58.3301)" class="st2 st3 st4">LU</text>
</svg>
